<svg width="171" height="24" viewBox="0 0 171 24" fill="none" xmlns="http://www.w3.org/2000/svg">
<path d="M27.5002 24C26.2006 24 25.4 23.4 24.0918 22.6934C22.7836 21.9867 19 19.1416 19 15.6C19 13.1975 18.3806 11.2543 17.3259 9.70568C16.2791 8.16896 14.8609 7.10428 13.3855 6.35272C12.6746 5.99064 11.9347 5.69452 11.198 5.4498C10.7685 5.30724 10.5193 4.84608 10.7056 4.4338C11.8867 1.81916 14.517 0 17.5724 0C21.7316 0 25.1035 3.37168 25.1035 7.53104C25.1035 8.42088 24.9492 9.2748 24.6658 10.0672C25.8662 9.2582 27.3126 8.78612 28.869 8.78612C33.0282 8.78612 36.3998 12.1578 36.3998 16.3172C36.3998 21.3244 31.9998 24 27.5002 24Z" fill="#8FB2F5"/>
<path d="M0 15.6896C0 19.6593 2.6172 22.967 6.08436 23.6978C6.61952 23.8933 7.19728 24 7.8 24H19.501C19.8934 24 20.0642 23.4752 19.7646 23.2217C17.7197 21.4914 16.2 19.0529 16.2 15.6C16.2 13.7027 15.7195 12.3209 15.0117 11.282C14.2959 10.2312 13.2891 9.44586 12.1146 8.84746C10.9293 8.24374 9.6424 7.85914 8.41348 7.5865C8.12404 7.54998 7.82948 7.53102 7.53104 7.53102C3.37168 7.53102 0 11.1838 0 15.6896Z" fill="#8FB2F5"/>
<path d="M95.6413 18.624L91.5997 4.79999H94.0285L96.7837 14.784L99.5293 4.81919L101.958 4.79999L104.713 14.784L107.459 4.79999H109.888L105.856 18.624H103.571L100.739 8.79359L97.9261 18.624H95.6413Z" fill="#FAFAFA"/>
<path d="M115.024 18.912C113.974 18.912 113.053 18.6848 112.259 18.2304C111.466 17.776 110.845 17.1456 110.397 16.3392C109.955 15.5328 109.734 14.6048 109.734 13.5552C109.734 12.4224 109.952 11.44 110.387 10.608C110.822 9.76959 111.427 9.11999 112.202 8.65919C112.976 8.19839 113.872 7.96799 114.89 7.96799C115.965 7.96799 116.877 8.22079 117.626 8.72639C118.381 9.22559 118.941 9.93279 119.306 10.848C119.67 11.7632 119.808 12.8416 119.718 14.0832H117.424V13.2384C117.418 12.112 117.219 11.2896 116.829 10.7712C116.438 10.2528 115.824 9.99359 114.986 9.99359C114.038 9.99359 113.334 10.288 112.874 10.8768C112.413 11.4592 112.182 12.3136 112.182 13.44C112.182 14.4896 112.413 15.3024 112.874 15.8784C113.334 16.4544 114.006 16.7424 114.89 16.7424C115.459 16.7424 115.949 16.6176 116.358 16.368C116.774 16.112 117.094 15.744 117.318 15.264L119.603 15.9552C119.206 16.8896 118.592 17.616 117.76 18.1344C116.934 18.6528 116.022 18.912 115.024 18.912ZM111.453 14.0832V12.336H118.586V14.0832H111.453Z" fill="#FAFAFA"/>
<path d="M124.572 18.912C123.823 18.912 123.19 18.7712 122.671 18.4896C122.153 18.2016 121.759 17.8208 121.491 17.3472C121.228 16.8736 121.097 16.352 121.097 15.7824C121.097 15.2832 121.18 14.8352 121.347 14.4384C121.513 14.0352 121.769 13.6896 122.115 13.4016C122.46 13.1072 122.908 12.8672 123.459 12.6816C123.875 12.5472 124.361 12.4256 124.918 12.3168C125.481 12.208 126.089 12.1088 126.742 12.0192C127.401 11.9232 128.089 11.8208 128.806 11.712L127.98 12.1824C127.987 11.4656 127.827 10.9376 127.5 10.5984C127.174 10.2592 126.623 10.0896 125.849 10.0896C125.382 10.0896 124.931 10.1984 124.495 10.416C124.06 10.6336 123.756 11.008 123.583 11.5392L121.471 10.8768C121.727 9.99999 122.214 9.29599 122.931 8.76479C123.654 8.2336 124.627 7.96799 125.849 7.96799C126.771 7.96799 127.58 8.11839 128.278 8.41919C128.982 8.71999 129.503 9.2128 129.843 9.89759C130.028 10.2624 130.14 10.6368 130.179 11.0208C130.217 11.3984 130.236 11.8112 130.236 12.2592V18.624H128.211V16.3776L128.547 16.7424C128.079 17.4912 127.532 18.0416 126.905 18.3936C126.284 18.7392 125.507 18.912 124.572 18.912ZM125.033 17.0688C125.558 17.0688 126.006 16.976 126.377 16.7904C126.748 16.6048 127.043 16.3776 127.26 16.1088C127.484 15.84 127.635 15.5872 127.711 15.3504C127.833 15.056 127.9 14.72 127.913 14.3424C127.932 13.9584 127.942 13.648 127.942 13.4112L128.652 13.6224C127.955 13.7312 127.356 13.8272 126.857 13.9104C126.358 13.9936 125.929 14.0736 125.571 14.1504C125.212 14.2208 124.895 14.3008 124.62 14.3904C124.351 14.4864 124.124 14.5984 123.939 14.7264C123.753 14.8544 123.609 15.0016 123.507 15.168C123.411 15.3344 123.363 15.5296 123.363 15.7536C123.363 16.0096 123.427 16.2368 123.555 16.4352C123.683 16.6272 123.868 16.7808 124.111 16.896C124.361 17.0112 124.668 17.0688 125.033 17.0688Z" fill="#FAFAFA"/>
<path d="M138.812 18.624C138.127 18.752 137.455 18.8064 136.796 18.7872C136.143 18.7744 135.558 18.656 135.039 18.432C134.521 18.2016 134.127 17.84 133.859 17.3472C133.622 16.8992 133.497 16.4416 133.484 15.9744C133.471 15.5072 133.465 14.9792 133.465 14.3904V5.37599H135.769V14.256C135.769 14.672 135.772 15.0368 135.779 15.3504C135.791 15.664 135.859 15.92 135.98 16.1184C136.211 16.5024 136.579 16.7168 137.084 16.7616C137.59 16.8064 138.166 16.7808 138.812 16.6848V18.624ZM131.583 10.0704V8.256H138.812V10.0704H131.583Z" fill="#FAFAFA"/>
<path d="M148.213 18.624V13.632C148.213 13.3056 148.19 12.944 148.146 12.5472C148.101 12.1504 147.995 11.7696 147.829 11.4048C147.669 11.0336 147.426 10.7296 147.099 10.4928C146.779 10.256 146.344 10.1376 145.794 10.1376C145.499 10.1376 145.208 10.1856 144.92 10.2816C144.632 10.3776 144.37 10.544 144.133 10.7808C143.902 11.0112 143.717 11.3312 143.576 11.7408C143.435 12.144 143.365 12.6624 143.365 13.296L141.992 12.7104C141.992 11.8272 142.162 11.0272 142.501 10.3104C142.846 9.59359 143.352 9.02399 144.018 8.60159C144.683 8.17279 145.502 7.95839 146.475 7.95839C147.243 7.95839 147.877 8.08639 148.376 8.34239C148.875 8.59839 149.272 8.92479 149.566 9.32159C149.861 9.71839 150.078 10.1408 150.219 10.5888C150.36 11.0368 150.45 11.4624 150.488 11.8656C150.533 12.2624 150.555 12.5856 150.555 12.8352V18.624H148.213ZM141.022 18.624V4.79999H143.086V12.0768H143.365V18.624H141.022Z" fill="#FAFAFA"/>
<path d="M157.774 18.912C156.724 18.912 155.803 18.6848 155.009 18.2304C154.216 17.776 153.595 17.1456 153.147 16.3392C152.705 15.5328 152.484 14.6048 152.484 13.5552C152.484 12.4224 152.702 11.44 153.137 10.608C153.572 9.76959 154.177 9.11999 154.952 8.65919C155.726 8.19839 156.622 7.96799 157.64 7.96799C158.715 7.96799 159.627 8.22079 160.376 8.72639C161.131 9.22559 161.691 9.93279 162.056 10.848C162.42 11.7632 162.558 12.8416 162.468 14.0832H160.174V13.2384C160.168 12.112 159.969 11.2896 159.579 10.7712C159.188 10.2528 158.574 9.99359 157.736 9.99359C156.788 9.99359 156.084 10.288 155.624 10.8768C155.163 11.4592 154.932 12.3136 154.932 13.44C154.932 14.4896 155.163 15.3024 155.624 15.8784C156.084 16.4544 156.756 16.7424 157.64 16.7424C158.209 16.7424 158.699 16.6176 159.108 16.368C159.524 16.112 159.844 15.744 160.068 15.264L162.353 15.9552C161.956 16.8896 161.342 17.616 160.51 18.1344C159.684 18.6528 158.772 18.912 157.774 18.912ZM154.203 14.0832V12.336H161.336V14.0832H154.203Z" fill="#FAFAFA"/>
<path d="M164.61 18.624V8.256H166.655V10.7808L166.406 10.4544C166.534 10.1088 166.703 9.79519 166.914 9.51359C167.132 9.22559 167.391 8.98879 167.692 8.80319C167.948 8.63039 168.23 8.49599 168.537 8.39999C168.85 8.29759 169.17 8.23679 169.497 8.21759C169.823 8.19199 170.14 8.20479 170.447 8.256V10.416C170.14 10.3264 169.785 10.2976 169.382 10.3296C168.985 10.3616 168.626 10.4736 168.306 10.6656C167.986 10.8384 167.724 11.0592 167.519 11.328C167.321 11.5968 167.174 11.904 167.078 12.2496C166.982 12.5888 166.934 12.9568 166.934 13.3536V18.624H164.61Z" fill="#FAFAFA"/>
<path d="M50.4732 18.624V6.96959H45.9996V4.79999H57.2604V6.96959H52.7868V18.624H50.4732Z" fill="#FAFAFA"/>
<path d="M58.8086 23.232L60.8054 17.7504L60.8438 19.3632L56.3222 8.25599H58.7318L61.9382 16.4736H61.3238L64.4438 8.25599H66.7574L60.9782 23.232H58.8086Z" fill="#FAFAFA"/>
<path d="M73.1715 18.912C72.1603 18.912 71.3123 18.672 70.6275 18.192C69.9427 17.712 69.4275 17.0592 69.0819 16.2336C68.7363 15.4016 68.5635 14.4704 68.5635 13.44C68.5635 12.3968 68.7363 11.4624 69.0819 10.6368C69.4275 9.81119 69.9331 9.16159 70.5987 8.68799C71.2707 8.20799 72.0995 7.96799 73.0851 7.96799C74.0643 7.96799 74.9123 8.20799 75.6291 8.68799C76.3523 9.16159 76.9123 9.81119 77.3091 10.6368C77.7059 11.456 77.9043 12.3904 77.9043 13.44C77.9043 14.4768 77.7091 15.408 77.3187 16.2336C76.9283 17.0592 76.3779 17.712 75.6675 18.192C74.9571 18.672 74.1251 18.912 73.1715 18.912ZM68.1699 23.232V8.25599H70.2147V15.5328H70.5027V23.232H68.1699ZM72.8163 16.8384C73.4179 16.8384 73.9139 16.688 74.3043 16.3872C74.6947 16.0864 74.9827 15.68 75.1683 15.168C75.3603 14.6496 75.4563 14.0736 75.4563 13.44C75.4563 12.8128 75.3603 12.2432 75.1683 11.7312C74.9763 11.2128 74.6787 10.8032 74.2755 10.5024C73.8723 10.1952 73.3603 10.0416 72.7395 10.0416C72.1507 10.0416 71.6707 10.1856 71.2995 10.4736C70.9283 10.7552 70.6531 11.152 70.4739 11.664C70.3011 12.1696 70.2147 12.7616 70.2147 13.44C70.2147 14.112 70.3011 14.704 70.4739 15.216C70.6531 15.728 70.9315 16.128 71.3091 16.416C71.6931 16.6976 72.1955 16.8384 72.8163 16.8384Z" fill="#FAFAFA"/>
<path d="M84.734 18.912C83.6844 18.912 82.7628 18.6848 81.9692 18.2304C81.1756 17.776 80.5548 17.1456 80.1068 16.3392C79.6652 15.5328 79.4444 14.6048 79.4444 13.5552C79.4444 12.4224 79.662 11.44 80.0972 10.608C80.5324 9.76959 81.1372 9.11999 81.9116 8.65919C82.686 8.19839 83.582 7.96799 84.5996 7.96799C85.6748 7.96799 86.5868 8.22079 87.3356 8.72639C88.0908 9.22559 88.6508 9.93279 89.0156 10.848C89.3804 11.7632 89.518 12.8416 89.4284 14.0832H87.134V13.2384C87.1276 12.112 86.9292 11.2896 86.5388 10.7712C86.1484 10.2528 85.534 9.99359 84.6956 9.99359C83.7484 9.99359 83.0444 10.288 82.5836 10.8768C82.1228 11.4592 81.8924 12.3136 81.8924 13.44C81.8924 14.4896 82.1228 15.3024 82.5836 15.8784C83.0444 16.4544 83.7164 16.7424 84.5996 16.7424C85.1692 16.7424 85.6588 16.6176 86.0684 16.368C86.4844 16.112 86.8044 15.744 87.0284 15.264L89.3132 15.9552C88.9164 16.8896 88.302 17.616 87.47 18.1344C86.6444 18.6528 85.7324 18.912 84.734 18.912ZM81.1628 14.0832V12.336H88.2956V14.0832H81.1628Z" fill="#FAFAFA"/>
</svg>
